<svg width="23" height="23" viewBox="0 0 23 23" fill="none" xmlns="http://www.w3.org/2000/svg">
<circle cx="11.5" cy="11.5" r="11.5" fill="#FFBB02" fill-opacity="0.28"/>
<path d="M10.6514 6.18311C10.9642 5.43965 12.0357 5.43973 12.3486 6.18311L13.5918 9.13623L13.709 9.4165L14.0127 9.44092L17.2373 9.6958C18.0595 9.76132 18.3727 10.762 17.7627 11.2788L15.3057 13.3599L15.0703 13.5591L15.1426 13.8589L15.8936 16.9683C16.0783 17.7355 15.2283 18.3744 14.5186 17.9458H14.5195L11.7588 16.2788L11.5 16.1226L11.2422 16.2788L8.48145 17.9448C7.77143 18.3736 6.9219 17.7344 7.10645 16.9683L7.85742 13.8569L7.92969 13.5571L7.69434 13.3579L5.23828 11.2778C4.6278 10.7607 4.94125 9.75986 5.7627 9.69482H5.76367L8.9873 9.43896L9.29102 9.41553L9.40918 9.13525L10.6514 6.18311Z" stroke="#FFBB02"/>
</svg>
